<svg width="50" height="50" viewBox="0 0 50 50" fill="none" xmlns="http://www.w3.org/2000/svg">
<path d="M25.0001 4.16663C13.5001 4.16663 4.16675 13.5 4.16675 25C4.16675 36.5 13.5001 45.8333 25.0001 45.8333C36.5001 45.8333 45.8334 36.5 45.8334 25C45.8334 13.5 36.5001 4.16663 25.0001 4.16663ZM34.3751 33.3333H16.6667C13.2084 33.3333 10.4167 30.5416 10.4167 27.0833C10.4167 23.625 13.2084 20.8333 16.6667 20.8333H16.9584C17.8751 17.2291 21.1042 14.5833 25.0001 14.5833C29.6042 14.5833 33.3334 18.3125 33.3334 22.9166H34.3751C37.2501 22.9166 39.5834 25.25 39.5834 28.125C39.5834 31 37.2501 33.3333 34.3751 33.3333Z" fill="#323232"/>
</svg>
