<svg width="50" height="50" viewBox="0 0 50 50" fill="none" xmlns="http://www.w3.org/2000/svg">
<path d="M25 4.16675C16.9375 4.16675 10.4166 10.6876 10.4166 18.7501C10.4166 22.3751 11.4583 25.7709 13.3541 28.8334C15.3333 32.0417 17.9375 34.7917 19.9375 38.0001C20.9166 39.5626 21.625 41.0209 22.375 42.7084C22.9166 43.8543 23.3541 45.8334 25 45.8334C26.6458 45.8334 27.0833 43.8543 27.6041 42.7084C28.375 41.0209 29.0625 39.5626 30.0416 38.0001C32.0416 34.8126 34.6458 32.0626 36.625 28.8334C38.5416 25.7709 39.5833 22.3751 39.5833 18.7501C39.5833 10.6876 33.0625 4.16675 25 4.16675ZM25 24.4792C22.125 24.4792 19.7916 22.1459 19.7916 19.2709C19.7916 16.3959 22.125 14.0626 25 14.0626C27.875 14.0626 30.2083 16.3959 30.2083 19.2709C30.2083 22.1459 27.875 24.4792 25 24.4792Z" fill="#323232"/>
</svg>
