<svg width="50" height="50" viewBox="0 0 50 50" fill="none" xmlns="http://www.w3.org/2000/svg">
<path opacity="0.3" d="M41.6666 12.5H8.33325V37.5H41.6666V12.5ZM24.9999 14.5833C27.8749 14.5833 30.2082 16.9167 30.2082 19.7917C30.2082 22.6667 27.8749 25 24.9999 25C22.1249 25 19.7916 22.6667 19.7916 19.7917C19.7916 16.9167 22.1249 14.5833 24.9999 14.5833ZM35.4166 35.4167H14.5833V33.3125C14.5833 28.9583 21.4791 27.0833 24.9999 27.0833C28.5207 27.0833 35.4166 28.9583 35.4166 33.3125V35.4167Z" fill="#323232"/>
<path d="M8.33342 41.6667H41.6668C43.9584 41.6667 45.8334 39.7917 45.8334 37.5V12.5C45.8334 10.2083 43.9584 8.33333 41.6668 8.33333H8.33342C6.04175 8.33333 4.16675 10.2083 4.16675 12.5V37.5C4.16675 39.7917 6.04175 41.6667 8.33342 41.6667ZM8.33342 12.5H41.6668V37.5H8.33342V12.5ZM8.33342 0H41.6668V4.16667H8.33342V0ZM8.33342 45.8333H41.6668V50H8.33342V45.8333ZM25.0001 25C27.8751 25 30.2084 22.6667 30.2084 19.7917C30.2084 16.9167 27.8751 14.5833 25.0001 14.5833C22.1251 14.5833 19.7917 16.9167 19.7917 19.7917C19.7917 22.6667 22.1251 25 25.0001 25ZM25.0001 17.7083C26.1459 17.7083 27.0834 18.6458 27.0834 19.7917C27.0834 20.9375 26.1459 21.875 25.0001 21.875C23.8542 21.875 22.9167 20.9375 22.9167 19.7917C22.9167 18.6458 23.8542 17.7083 25.0001 17.7083ZM25.0001 27.0833C21.4792 27.0833 14.5834 28.9583 14.5834 33.3125V35.4167H35.4167V33.3125C35.4167 28.9583 28.5209 27.0833 25.0001 27.0833ZM18.3542 32.2917C19.6251 31.2083 22.5834 30.2083 25.0001 30.2083C27.4376 30.2083 30.3959 31.2083 31.6667 32.2917H18.3542Z" fill="#323232"/>
</svg>
