<svg width="50" height="50" viewBox="0 0 50 50" fill="none" xmlns="http://www.w3.org/2000/svg">
<path d="M36.375 10.4167C36.25 12.2708 35.9375 14.0833 35.4375 15.8125L37.9375 18.3125C38.7917 15.8125 39.3333 13.1667 39.5208 10.4167H36.375ZM15.8333 35.4583C14.0625 35.9583 12.25 36.2708 10.4167 36.3958V39.5C13.1667 39.3125 15.8125 38.7708 18.3333 37.9375L15.8333 35.4583ZM34.375 6.25H41.6667C42.8125 6.25 43.75 7.1875 43.75 8.33333C43.75 27.8958 27.8958 43.75 8.33333 43.75C7.1875 43.75 6.25 42.8125 6.25 41.6667V34.3958C6.25 33.25 7.1875 32.3125 8.33333 32.3125C10.9167 32.3125 13.4375 31.8958 15.7708 31.125C15.9792 31.0417 16.2083 31.0208 16.4167 31.0208C16.9583 31.0208 17.4792 31.2292 17.8958 31.625L22.4792 36.2083C28.375 33.1875 33.2083 28.375 36.2083 22.4792L31.625 17.8958C31.0417 17.3125 30.875 16.5 31.1042 15.7708C31.875 13.4375 32.2917 10.9375 32.2917 8.33333C32.2917 7.1875 33.2292 6.25 34.375 6.25Z" fill="#323232"/>
</svg>
